<mxfile host="app.diagrams.net" modified="2023-06-22T04:58:08.779Z" agent="Mozilla/5.0 (Windows NT 10.0; Win64; x64) AppleWebKit/537.36 (KHTML, like Gecko) Chrome/114.0.0.0 Safari/537.36" etag="LJalQDo69I1xrQSgGst0" version="21.5.0" type="github" pages="2">
  <diagram name="Prueba 1" id="Gpf-qaIa7NJB8zfgSjEI">
    <mxGraphModel dx="954" dy="630" grid="1" gridSize="10" guides="1" tooltips="1" connect="1" arrows="1" fold="1" page="1" pageScale="1" pageWidth="827" pageHeight="1169" math="0" shadow="0">
      <root>
        <mxCell id="0" />
        <mxCell id="1" parent="0" />
        <mxCell id="NgpHp_imjt_HoerWrNj4-1" value="" style="edgeStyle=orthogonalEdgeStyle;rounded=0;orthogonalLoop=1;jettySize=auto;html=1;" edge="1" parent="1" source="QGM3a--Py1Pl6MsEmPgr-1" target="n-eRl2AvLXdgyGuG--On-5">
          <mxGeometry relative="1" as="geometry" />
        </mxCell>
        <mxCell id="QGM3a--Py1Pl6MsEmPgr-1" value="Ingresar al Sistema" style="rounded=0;whiteSpace=wrap;html=1;" parent="1" vertex="1">
          <mxGeometry x="350" y="200" width="120" height="60" as="geometry" />
        </mxCell>
        <mxCell id="n-eRl2AvLXdgyGuG--On-10" value="" style="edgeStyle=orthogonalEdgeStyle;rounded=0;orthogonalLoop=1;jettySize=auto;html=1;" parent="1" source="QGM3a--Py1Pl6MsEmPgr-2" target="n-eRl2AvLXdgyGuG--On-9" edge="1">
          <mxGeometry relative="1" as="geometry" />
        </mxCell>
        <mxCell id="QGM3a--Py1Pl6MsEmPgr-2" value="Usuario Verificado Ingresa" style="whiteSpace=wrap;html=1;rounded=0;" parent="1" vertex="1">
          <mxGeometry x="354" y="300" width="120" height="60" as="geometry" />
        </mxCell>
        <mxCell id="QGM3a--Py1Pl6MsEmPgr-6" value="" style="shape=sumEllipse;perimeter=ellipsePerimeter;html=1;backgroundOutline=1;" parent="1" vertex="1">
          <mxGeometry x="290" y="505" width="30" height="30" as="geometry" />
        </mxCell>
        <mxCell id="n-eRl2AvLXdgyGuG--On-12" value="" style="edgeStyle=orthogonalEdgeStyle;rounded=0;orthogonalLoop=1;jettySize=auto;html=1;" parent="1" source="n-eRl2AvLXdgyGuG--On-9" target="n-eRl2AvLXdgyGuG--On-11" edge="1">
          <mxGeometry relative="1" as="geometry" />
        </mxCell>
        <mxCell id="n-eRl2AvLXdgyGuG--On-9" value="Comprobar si Realizo Voto" style="whiteSpace=wrap;html=1;rounded=0;" parent="1" vertex="1">
          <mxGeometry x="354" y="385" width="120" height="60" as="geometry" />
        </mxCell>
        <mxCell id="n-eRl2AvLXdgyGuG--On-13" value="SI" style="edgeStyle=orthogonalEdgeStyle;rounded=0;orthogonalLoop=1;jettySize=auto;html=1;" parent="1" source="n-eRl2AvLXdgyGuG--On-11" target="QGM3a--Py1Pl6MsEmPgr-6" edge="1">
          <mxGeometry relative="1" as="geometry" />
        </mxCell>
        <mxCell id="NgpHp_imjt_HoerWrNj4-4" value="NO" style="edgeStyle=orthogonalEdgeStyle;rounded=0;orthogonalLoop=1;jettySize=auto;html=1;" edge="1" parent="1" source="n-eRl2AvLXdgyGuG--On-11" target="NgpHp_imjt_HoerWrNj4-3">
          <mxGeometry relative="1" as="geometry" />
        </mxCell>
        <mxCell id="n-eRl2AvLXdgyGuG--On-11" value="" style="rhombus;whiteSpace=wrap;html=1;rounded=0;" parent="1" vertex="1">
          <mxGeometry x="374" y="480" width="80" height="80" as="geometry" />
        </mxCell>
        <mxCell id="n-eRl2AvLXdgyGuG--On-28" value="" style="edgeStyle=orthogonalEdgeStyle;rounded=0;orthogonalLoop=1;jettySize=auto;html=1;" parent="1" source="n-eRl2AvLXdgyGuG--On-26" target="QGM3a--Py1Pl6MsEmPgr-1" edge="1">
          <mxGeometry relative="1" as="geometry" />
        </mxCell>
        <mxCell id="n-eRl2AvLXdgyGuG--On-26" value="" style="ellipse;fillColor=strokeColor;html=1;" parent="1" vertex="1">
          <mxGeometry x="280" y="215" width="30" height="30" as="geometry" />
        </mxCell>
        <mxCell id="NgpHp_imjt_HoerWrNj4-5" value="" style="edgeStyle=orthogonalEdgeStyle;rounded=0;orthogonalLoop=1;jettySize=auto;html=1;" edge="1" parent="1" source="n-eRl2AvLXdgyGuG--On-18" target="n-eRl2AvLXdgyGuG--On-19">
          <mxGeometry relative="1" as="geometry" />
        </mxCell>
        <mxCell id="n-eRl2AvLXdgyGuG--On-18" value="Y" style="ellipse;whiteSpace=wrap;html=1;rounded=0;" parent="1" vertex="1">
          <mxGeometry x="585" y="300" width="36" height="30" as="geometry" />
        </mxCell>
        <mxCell id="QGM3a--Py1Pl6MsEmPgr-17" value="" style="ellipse;html=1;shape=endState;fillColor=strokeColor;" parent="1" vertex="1">
          <mxGeometry x="588" y="650" width="30" height="30" as="geometry" />
        </mxCell>
        <mxCell id="n-eRl2AvLXdgyGuG--On-23" value="Hacer Informe de Votos&amp;nbsp;" style="whiteSpace=wrap;html=1;rounded=0;" parent="1" vertex="1">
          <mxGeometry x="543" y="560" width="120" height="60" as="geometry" />
        </mxCell>
        <mxCell id="n-eRl2AvLXdgyGuG--On-24" value="" style="edgeStyle=orthogonalEdgeStyle;rounded=0;orthogonalLoop=1;jettySize=auto;html=1;" parent="1" source="n-eRl2AvLXdgyGuG--On-21" target="n-eRl2AvLXdgyGuG--On-23" edge="1">
          <mxGeometry relative="1" as="geometry" />
        </mxCell>
        <mxCell id="n-eRl2AvLXdgyGuG--On-21" value="Registra Voto" style="whiteSpace=wrap;html=1;rounded=0;" parent="1" vertex="1">
          <mxGeometry x="543" y="470" width="120" height="60" as="geometry" />
        </mxCell>
        <mxCell id="n-eRl2AvLXdgyGuG--On-19" value="Valida Elecciones" style="whiteSpace=wrap;html=1;rounded=0;" parent="1" vertex="1">
          <mxGeometry x="543" y="370" width="120" height="60" as="geometry" />
        </mxCell>
        <mxCell id="n-eRl2AvLXdgyGuG--On-25" value="" style="edgeStyle=orthogonalEdgeStyle;rounded=0;orthogonalLoop=1;jettySize=auto;html=1;" parent="1" source="n-eRl2AvLXdgyGuG--On-23" target="QGM3a--Py1Pl6MsEmPgr-17" edge="1">
          <mxGeometry relative="1" as="geometry" />
        </mxCell>
        <mxCell id="n-eRl2AvLXdgyGuG--On-22" value="" style="edgeStyle=orthogonalEdgeStyle;rounded=0;orthogonalLoop=1;jettySize=auto;html=1;" parent="1" source="n-eRl2AvLXdgyGuG--On-19" target="n-eRl2AvLXdgyGuG--On-21" edge="1">
          <mxGeometry relative="1" as="geometry" />
        </mxCell>
        <mxCell id="NgpHp_imjt_HoerWrNj4-2" style="edgeStyle=orthogonalEdgeStyle;rounded=0;orthogonalLoop=1;jettySize=auto;html=1;entryX=0.5;entryY=0;entryDx=0;entryDy=0;" edge="1" parent="1" source="n-eRl2AvLXdgyGuG--On-5" target="QGM3a--Py1Pl6MsEmPgr-2">
          <mxGeometry relative="1" as="geometry">
            <Array as="points">
              <mxPoint x="600" y="280" />
              <mxPoint x="414" y="280" />
            </Array>
          </mxGeometry>
        </mxCell>
        <mxCell id="n-eRl2AvLXdgyGuG--On-5" value="Verificar Usuario" style="rounded=0;whiteSpace=wrap;html=1;" parent="1" vertex="1">
          <mxGeometry x="540" y="200" width="120" height="60" as="geometry" />
        </mxCell>
        <mxCell id="NgpHp_imjt_HoerWrNj4-3" value="Realizar Voto" style="whiteSpace=wrap;html=1;rounded=0;" vertex="1" parent="1">
          <mxGeometry x="354" y="610" width="120" height="60" as="geometry" />
        </mxCell>
        <mxCell id="NgpHp_imjt_HoerWrNj4-6" value="Votantes" style="shape=umlFrame;whiteSpace=wrap;html=1;pointerEvents=0;recursiveResize=0;container=1;collapsible=0;width=160;" vertex="1" parent="1">
          <mxGeometry x="240" y="160" width="260" height="530" as="geometry" />
        </mxCell>
        <mxCell id="NgpHp_imjt_HoerWrNj4-8" value="Sistema Votacion" style="shape=umlFrame;whiteSpace=wrap;html=1;pointerEvents=0;recursiveResize=0;container=1;collapsible=0;width=160;" vertex="1" parent="1">
          <mxGeometry x="500" y="160" width="260" height="530" as="geometry" />
        </mxCell>
      </root>
    </mxGraphModel>
  </diagram>
  <diagram id="-zu0GIy0TNIHVYZqaDgU" name="PÃ¡gina-2">
    <mxGraphModel dx="954" dy="630" grid="1" gridSize="10" guides="1" tooltips="1" connect="1" arrows="1" fold="1" page="1" pageScale="1" pageWidth="827" pageHeight="1169" math="0" shadow="0">
      <root>
        <mxCell id="0" />
        <mxCell id="1" parent="0" />
        <mxCell id="igbfXQitqXZ1I82z5g-z-34" value="" style="edgeStyle=orthogonalEdgeStyle;rounded=0;orthogonalLoop=1;jettySize=auto;html=1;" edge="1" parent="1" source="igbfXQitqXZ1I82z5g-z-1" target="igbfXQitqXZ1I82z5g-z-6">
          <mxGeometry relative="1" as="geometry" />
        </mxCell>
        <mxCell id="igbfXQitqXZ1I82z5g-z-1" value="" style="ellipse;fillColor=strokeColor;html=1;" vertex="1" parent="1">
          <mxGeometry x="220" y="157.5" width="30" height="30" as="geometry" />
        </mxCell>
        <mxCell id="igbfXQitqXZ1I82z5g-z-8" value="" style="edgeStyle=orthogonalEdgeStyle;rounded=0;orthogonalLoop=1;jettySize=auto;html=1;" edge="1" parent="1" source="igbfXQitqXZ1I82z5g-z-6" target="igbfXQitqXZ1I82z5g-z-7">
          <mxGeometry relative="1" as="geometry" />
        </mxCell>
        <mxCell id="igbfXQitqXZ1I82z5g-z-6" value="Ingresar al Sistema" style="html=1;align=center;verticalAlign=top;rounded=1;absoluteArcSize=1;arcSize=10;dashed=0;whiteSpace=wrap;" vertex="1" parent="1">
          <mxGeometry x="280" y="160" width="140" height="25" as="geometry" />
        </mxCell>
        <mxCell id="igbfXQitqXZ1I82z5g-z-10" value="" style="edgeStyle=orthogonalEdgeStyle;rounded=0;orthogonalLoop=1;jettySize=auto;html=1;" edge="1" parent="1" source="igbfXQitqXZ1I82z5g-z-7" target="igbfXQitqXZ1I82z5g-z-9">
          <mxGeometry relative="1" as="geometry" />
        </mxCell>
        <mxCell id="igbfXQitqXZ1I82z5g-z-7" value="Verificar Usuario" style="html=1;align=center;verticalAlign=top;rounded=1;absoluteArcSize=1;arcSize=10;dashed=0;whiteSpace=wrap;" vertex="1" parent="1">
          <mxGeometry x="500" y="160" width="140" height="25" as="geometry" />
        </mxCell>
        <mxCell id="igbfXQitqXZ1I82z5g-z-12" value="NO" style="edgeStyle=orthogonalEdgeStyle;rounded=0;orthogonalLoop=1;jettySize=auto;html=1;" edge="1" parent="1" source="igbfXQitqXZ1I82z5g-z-9" target="igbfXQitqXZ1I82z5g-z-11">
          <mxGeometry relative="1" as="geometry" />
        </mxCell>
        <mxCell id="igbfXQitqXZ1I82z5g-z-14" value="" style="edgeStyle=orthogonalEdgeStyle;rounded=0;orthogonalLoop=1;jettySize=auto;html=1;" edge="1" parent="1" source="igbfXQitqXZ1I82z5g-z-9" target="igbfXQitqXZ1I82z5g-z-13">
          <mxGeometry relative="1" as="geometry" />
        </mxCell>
        <mxCell id="igbfXQitqXZ1I82z5g-z-9" value="" style="rhombus;whiteSpace=wrap;html=1;verticalAlign=top;rounded=1;arcSize=10;dashed=0;" vertex="1" parent="1">
          <mxGeometry x="530" y="220" width="80" height="80" as="geometry" />
        </mxCell>
        <mxCell id="igbfXQitqXZ1I82z5g-z-11" value="" style="ellipse;html=1;shape=endState;fillColor=strokeColor;" vertex="1" parent="1">
          <mxGeometry x="680" y="245" width="30" height="30" as="geometry" />
        </mxCell>
        <mxCell id="igbfXQitqXZ1I82z5g-z-16" value="" style="edgeStyle=orthogonalEdgeStyle;rounded=0;orthogonalLoop=1;jettySize=auto;html=1;" edge="1" parent="1" source="igbfXQitqXZ1I82z5g-z-13" target="igbfXQitqXZ1I82z5g-z-15">
          <mxGeometry relative="1" as="geometry" />
        </mxCell>
        <mxCell id="igbfXQitqXZ1I82z5g-z-13" value="Usuario Verificado Ingresa" style="whiteSpace=wrap;html=1;verticalAlign=top;rounded=1;arcSize=10;dashed=0;" vertex="1" parent="1">
          <mxGeometry x="300" y="237.5" width="130" height="45" as="geometry" />
        </mxCell>
        <mxCell id="igbfXQitqXZ1I82z5g-z-18" value="" style="edgeStyle=orthogonalEdgeStyle;rounded=0;orthogonalLoop=1;jettySize=auto;html=1;" edge="1" parent="1" source="igbfXQitqXZ1I82z5g-z-15" target="igbfXQitqXZ1I82z5g-z-17">
          <mxGeometry relative="1" as="geometry" />
        </mxCell>
        <mxCell id="igbfXQitqXZ1I82z5g-z-15" value="Comprobar si Realizo el Voto" style="whiteSpace=wrap;html=1;verticalAlign=top;rounded=1;arcSize=10;dashed=0;" vertex="1" parent="1">
          <mxGeometry x="305" y="325" width="120" height="40" as="geometry" />
        </mxCell>
        <mxCell id="igbfXQitqXZ1I82z5g-z-20" value="SI" style="edgeStyle=orthogonalEdgeStyle;rounded=0;orthogonalLoop=1;jettySize=auto;html=1;" edge="1" parent="1" source="igbfXQitqXZ1I82z5g-z-17" target="igbfXQitqXZ1I82z5g-z-19">
          <mxGeometry relative="1" as="geometry" />
        </mxCell>
        <mxCell id="igbfXQitqXZ1I82z5g-z-22" value="NO" style="edgeStyle=orthogonalEdgeStyle;rounded=0;orthogonalLoop=1;jettySize=auto;html=1;" edge="1" parent="1" source="igbfXQitqXZ1I82z5g-z-17" target="igbfXQitqXZ1I82z5g-z-21">
          <mxGeometry relative="1" as="geometry" />
        </mxCell>
        <mxCell id="igbfXQitqXZ1I82z5g-z-17" value="" style="rhombus;whiteSpace=wrap;html=1;verticalAlign=top;rounded=1;arcSize=10;dashed=0;" vertex="1" parent="1">
          <mxGeometry x="325" y="400" width="80" height="80" as="geometry" />
        </mxCell>
        <mxCell id="igbfXQitqXZ1I82z5g-z-19" value="" style="shape=sumEllipse;perimeter=ellipsePerimeter;html=1;backgroundOutline=1;" vertex="1" parent="1">
          <mxGeometry x="250" y="425" width="30" height="30" as="geometry" />
        </mxCell>
        <mxCell id="igbfXQitqXZ1I82z5g-z-24" value="" style="edgeStyle=orthogonalEdgeStyle;rounded=0;orthogonalLoop=1;jettySize=auto;html=1;" edge="1" parent="1" source="igbfXQitqXZ1I82z5g-z-21" target="igbfXQitqXZ1I82z5g-z-23">
          <mxGeometry relative="1" as="geometry" />
        </mxCell>
        <mxCell id="igbfXQitqXZ1I82z5g-z-21" value="Realizar Voto" style="whiteSpace=wrap;html=1;verticalAlign=top;rounded=1;arcSize=10;dashed=0;" vertex="1" parent="1">
          <mxGeometry x="305" y="540" width="120" height="30" as="geometry" />
        </mxCell>
        <mxCell id="igbfXQitqXZ1I82z5g-z-23" value="Y" style="ellipse;whiteSpace=wrap;html=1;verticalAlign=top;rounded=1;arcSize=10;dashed=0;" vertex="1" parent="1">
          <mxGeometry x="350" y="610" width="30" height="25" as="geometry" />
        </mxCell>
        <mxCell id="igbfXQitqXZ1I82z5g-z-27" value="" style="edgeStyle=orthogonalEdgeStyle;rounded=0;orthogonalLoop=1;jettySize=auto;html=1;" edge="1" parent="1" source="igbfXQitqXZ1I82z5g-z-25" target="igbfXQitqXZ1I82z5g-z-26">
          <mxGeometry relative="1" as="geometry" />
        </mxCell>
        <mxCell id="igbfXQitqXZ1I82z5g-z-25" value="Y" style="ellipse;whiteSpace=wrap;html=1;verticalAlign=top;rounded=1;arcSize=10;dashed=0;" vertex="1" parent="1">
          <mxGeometry x="555" y="320" width="30" height="25" as="geometry" />
        </mxCell>
        <mxCell id="igbfXQitqXZ1I82z5g-z-29" value="" style="edgeStyle=orthogonalEdgeStyle;rounded=0;orthogonalLoop=1;jettySize=auto;html=1;" edge="1" parent="1" source="igbfXQitqXZ1I82z5g-z-26" target="igbfXQitqXZ1I82z5g-z-28">
          <mxGeometry relative="1" as="geometry" />
        </mxCell>
        <mxCell id="igbfXQitqXZ1I82z5g-z-26" value="Registrar Voto" style="whiteSpace=wrap;html=1;verticalAlign=top;rounded=1;arcSize=10;dashed=0;" vertex="1" parent="1">
          <mxGeometry x="510" y="385" width="120" height="27.5" as="geometry" />
        </mxCell>
        <mxCell id="igbfXQitqXZ1I82z5g-z-31" value="" style="edgeStyle=orthogonalEdgeStyle;rounded=0;orthogonalLoop=1;jettySize=auto;html=1;" edge="1" parent="1" source="igbfXQitqXZ1I82z5g-z-28" target="igbfXQitqXZ1I82z5g-z-30">
          <mxGeometry relative="1" as="geometry" />
        </mxCell>
        <mxCell id="igbfXQitqXZ1I82z5g-z-28" value="Validar Elecciones" style="whiteSpace=wrap;html=1;verticalAlign=top;rounded=1;arcSize=10;dashed=0;" vertex="1" parent="1">
          <mxGeometry x="510" y="442.5" width="120" height="27.5" as="geometry" />
        </mxCell>
        <mxCell id="igbfXQitqXZ1I82z5g-z-33" value="" style="edgeStyle=orthogonalEdgeStyle;rounded=0;orthogonalLoop=1;jettySize=auto;html=1;" edge="1" parent="1" source="igbfXQitqXZ1I82z5g-z-30" target="igbfXQitqXZ1I82z5g-z-32">
          <mxGeometry relative="1" as="geometry" />
        </mxCell>
        <mxCell id="igbfXQitqXZ1I82z5g-z-30" value="Hacer Informe Elecciones" style="whiteSpace=wrap;html=1;verticalAlign=top;rounded=1;arcSize=10;dashed=0;" vertex="1" parent="1">
          <mxGeometry x="510" y="495" width="120" height="45" as="geometry" />
        </mxCell>
        <mxCell id="igbfXQitqXZ1I82z5g-z-32" value="" style="ellipse;html=1;shape=endState;fillColor=strokeColor;" vertex="1" parent="1">
          <mxGeometry x="555" y="575" width="30" height="30" as="geometry" />
        </mxCell>
        <mxCell id="igbfXQitqXZ1I82z5g-z-35" value="Votantes" style="shape=umlFrame;whiteSpace=wrap;html=1;pointerEvents=0;recursiveResize=0;container=1;collapsible=0;width=160;" vertex="1" parent="1">
          <mxGeometry x="200" y="102.5" width="280" height="547.5" as="geometry" />
        </mxCell>
        <mxCell id="igbfXQitqXZ1I82z5g-z-36" value="Sistema Votacion" style="shape=umlFrame;whiteSpace=wrap;html=1;pointerEvents=0;recursiveResize=0;container=1;collapsible=0;width=160;" vertex="1" parent="1">
          <mxGeometry x="480" y="102.5" width="250" height="547.5" as="geometry" />
        </mxCell>
      </root>
    </mxGraphModel>
  </diagram>
</mxfile>
